<svg width="40" height="41" viewBox="0 0 40 41" fill="none" xmlns="http://www.w3.org/2000/svg">
<path d="M36.3422 17.7077H34.9997V17.6385H19.9997V24.3052H29.4188C28.0447 28.186 24.3522 30.9718 19.9997 30.9718C14.4772 30.9718 9.99967 26.4943 9.99967 20.9718C9.99967 15.4493 14.4772 10.9718 19.9997 10.9718C22.5488 10.9718 24.868 11.9335 26.6338 13.5043L31.348 8.79018C28.3713 6.01601 24.3897 4.30518 19.9997 4.30518C10.7955 4.30518 3.33301 11.7677 3.33301 20.9718C3.33301 30.176 10.7955 37.6385 19.9997 37.6385C29.2038 37.6385 36.6663 30.176 36.6663 20.9718C36.6663 19.8543 36.5513 18.7635 36.3422 17.7077Z" fill="#112639"/>
<path d="M5.25488 13.2143L10.7307 17.2302C12.2124 13.5618 15.8007 10.9718 19.9999 10.9718C22.5491 10.9718 24.8682 11.9335 26.6341 13.5043L31.3482 8.79018C28.3716 6.01601 24.3899 4.30518 19.9999 4.30518C13.5982 4.30518 8.04655 7.91934 5.25488 13.2143Z" fill="#112639"/>
<path d="M19.9996 37.6384C24.3046 37.6384 28.2163 35.9909 31.1738 33.3118L26.0154 28.9468C24.2859 30.2621 22.1725 30.9735 19.9996 30.9718C15.6646 30.9718 11.9838 28.2076 10.5971 24.3501L5.16211 28.5376C7.92044 33.9351 13.5221 37.6384 19.9996 37.6384Z" fill="#112639"/>
<path d="M36.3425 17.7074H35V17.6382H20V24.3049H29.4192C28.7618 26.1519 27.5778 27.7658 26.0133 28.9474L26.0158 28.9457L31.1742 33.3107C30.8092 33.6424 36.6667 29.3049 36.6667 20.9715C36.6667 19.854 36.5517 18.7632 36.3425 17.7074Z" fill="#112639"/>
</svg>
