<svg width="40" height="41" viewBox="0 0 40 41" fill="none" xmlns="http://www.w3.org/2000/svg">
<path d="M35.8676 12.9484C35.4867 11.5146 34.3648 10.3843 32.9393 10.0007C30.3573 9.30518 20.0004 9.30518 20.0004 9.30518C20.0004 9.30518 9.64352 9.30518 7.06016 10.0007C5.63601 10.3843 4.51407 11.5132 4.13319 12.9484C3.44043 15.5483 3.44043 20.9717 3.44043 20.9717C3.44043 20.9717 3.44043 26.3951 4.13319 28.995C4.51407 30.4288 5.63601 31.559 7.06154 31.9427C9.64352 32.6382 20.0004 32.6382 20.0004 32.6382C20.0004 32.6382 30.3573 32.6382 32.9406 31.9427C34.3648 31.559 35.4867 30.4302 35.869 28.995C36.5604 26.3951 36.5604 20.9717 36.5604 20.9717C36.5604 20.9717 36.5604 15.5483 35.8676 12.9484ZM16.6139 25.8969V16.0465L25.2692 20.9717L16.6139 25.8969Z" fill="#112639"/>
</svg>
