<svg width="120" height="120" viewBox="0 0 120 120" fill="none" xmlns="http://www.w3.org/2000/svg">
<path d="M72.8555 6.8064C76.0399 9.99079 78.5666 13.7718 80.29 17.9324C82.0134 22.093 82.9003 26.5529 82.9004 31.0564C82.9004 35.56 82.0135 40.0206 80.29 44.1814C79.8546 45.2326 79.3676 46.2594 78.832 47.2585C83.5002 49.8907 87.5053 53.5892 90.5039 58.0769C93.9747 63.2713 95.9531 69.3067 96.2441 75.5271H96.2822V77.0232C96.2823 77.0587 96.2832 77.0942 96.2832 77.1296V78.7322H96.2822V111.424H83.4619V78.7322H83.4541V77.1296C83.454 72.8845 82.1953 68.7346 79.8369 65.2048C77.4783 61.6749 74.1254 58.9233 70.2031 57.2986C66.2808 55.6739 61.9647 55.2487 57.8008 56.0769C53.637 56.9052 49.8125 58.9499 46.8105 61.9519C43.8086 64.9539 41.7638 68.7784 40.9355 72.9421C40.1074 77.106 40.5326 81.4222 42.1572 85.3445C43.7819 89.2667 46.5335 92.6196 50.0635 94.9783C53.5933 97.3367 57.7431 98.5954 61.9883 98.5955H63.5908V98.6033H75.1299V111.424H63.5908V111.425H61.9883C61.9844 111.425 61.9805 111.424 61.9766 111.424L60.3867 111.425V111.385C54.166 111.095 48.1303 109.116 42.9355 105.645C37.2959 101.877 32.9004 96.5201 30.3047 90.2537C27.7092 83.9873 27.0303 77.0915 28.3535 70.4392C29.6768 63.787 32.9433 57.6767 37.7393 52.8806C40.1846 50.4353 42.9718 48.388 45.998 46.7927C45.7333 45.1493 45.2796 43.538 44.6396 41.9929C43.5609 39.3886 41.9796 37.0223 39.9863 35.0291C37.9931 33.0358 35.6268 31.4545 33.0225 30.3757C30.4182 29.297 27.6265 28.7419 24.8076 28.7419H23.2051V15.9128H24.8076C29.3111 15.9128 33.771 16.7998 37.9316 18.5232C42.0924 20.2466 45.8731 22.7732 49.0576 25.9578C52.2421 29.1423 54.7687 32.923 56.4922 37.0837C57.2902 39.0103 57.9055 41.0016 58.3398 43.031C61.0145 42.7448 63.7067 42.7757 66.3613 43.1169C67.1799 41.9115 67.8772 40.6239 68.4375 39.2712C69.5162 36.6669 70.0713 33.8753 70.0713 31.0564C70.0712 28.2377 69.5162 25.4467 68.4375 22.8425C67.3588 20.2383 65.7774 17.8719 63.7842 15.8787L62.6514 14.7449L71.7227 5.67358L72.8555 6.8064ZM61.9863 64.6306C69.156 64.6306 75.1264 70.1416 75.127 77.1296H75.1318V89.6277H62.2373C62.1538 89.6292 62.0702 89.6306 61.9863 89.6306C54.8167 89.6305 48.8461 84.1188 48.8457 77.1306C48.8457 70.1422 54.8165 64.6307 61.9863 64.6306Z" fill="#146CE0"/>
</svg>
