<svg width="101" height="32" viewBox="0 0 101 32" fill="none" xmlns="http://www.w3.org/2000/svg">
<path d="M15.0241 0.343041C15.9877 1.30666 16.7522 2.45072 17.2737 3.70974C17.7952 4.96872 18.0637 6.31811 18.0637 7.68082C18.0637 9.04357 17.7952 10.3931 17.2737 11.6521C17.1419 11.9704 16.9944 12.2811 16.8322 12.5836C18.2447 13.38 19.4565 14.4992 20.3638 15.8571C21.4141 17.4289 22.013 19.2553 22.101 21.1376H22.1125V21.5951C22.1125 21.6042 22.1128 21.6134 22.1128 21.6226L22.1125 32H18.2331V22.1075H18.2309V21.6226C18.2309 20.338 17.8497 19.0822 17.1361 18.014C16.4223 16.9459 15.4079 16.1131 14.2211 15.6215C13.0342 15.1299 11.7281 15.0013 10.4681 15.252C9.20815 15.5026 8.05079 16.1212 7.1424 17.0296C6.234 17.938 5.61536 19.0954 5.36473 20.3553C5.11411 21.6153 5.24264 22.9214 5.73426 24.1083C6.22589 25.2952 7.05865 26.3096 8.1268 27.0233C9.19493 27.7369 10.4507 28.1181 11.7353 28.1181H12.2203V28.1206H15.7117V32H11.2504V31.9883C9.36809 31.9002 7.54171 31.3013 5.96986 30.2511C4.2634 29.1108 2.93338 27.49 2.14794 25.5939C1.36251 23.6977 1.1569 21.6111 1.5573 19.5981C1.95772 17.585 2.94601 15.7359 4.39732 14.2845C5.13741 13.5445 5.98105 12.9249 6.89705 12.4422C6.8169 11.945 6.67967 11.4575 6.48605 10.9901C6.15962 10.202 5.68106 9.48599 5.07791 8.88284C4.47475 8.27969 3.75874 7.80112 2.97069 7.47469C2.18264 7.14828 1.33793 6.98025 0.484954 6.98025H0V3.09836H0.484954C1.84771 3.09836 3.19726 3.36688 4.45628 3.88838C5.71528 4.40989 6.85938 5.17416 7.82298 6.13776C8.78659 7.10136 9.55085 8.24546 10.0724 9.50446C10.3138 10.0874 10.5003 10.69 10.6318 11.3041C11.441 11.2176 12.2556 11.2268 13.0588 11.3301C13.3065 10.9653 13.5176 10.5758 13.6872 10.1666C14.0136 9.37851 14.1816 8.53379 14.1816 7.68082C14.1816 6.82786 14.0136 5.98312 13.6872 5.19508C13.3607 4.40708 12.8824 3.69099 12.2793 3.08787L11.9362 2.74508L14.6811 0L15.0241 0.343041Z" fill="#146CE0"/>
<path d="M35.8891 11.2451C37.2519 11.2451 38.6014 11.5137 39.8605 12.0352C41.1195 12.5567 42.2636 13.3209 43.2272 14.2845C44.1908 15.2481 44.955 16.3922 45.4765 17.6512C45.9361 18.7607 46.199 19.9405 46.2551 21.1376H46.2666V32H42.3872V22.1075H42.3847V21.6226C42.3847 20.7696 42.2166 19.9249 41.8902 19.1368C41.5638 18.3488 41.0852 17.6328 40.4821 17.0296C39.8789 16.4265 39.1629 15.9479 38.3749 15.6215C37.5868 15.2951 36.7421 15.127 35.8891 15.127C35.0361 15.127 34.1915 15.2951 33.4034 15.6215C32.6153 15.9479 31.8993 16.4265 31.2962 17.0296C30.693 17.6328 30.2145 18.3488 29.888 19.1368C29.5616 19.9249 29.3936 20.7696 29.3936 21.6226V22.1075H29.3911V32H25.5117V21.1376H25.5232C25.5792 19.9405 25.8422 18.7607 26.3017 17.6512C26.8232 16.3922 27.5875 15.2481 28.5511 14.2845C29.5147 13.3209 30.6588 12.5567 31.9178 12.0352C33.1768 11.5137 34.5264 11.2451 35.8891 11.2451Z" fill="#146CE0"/>
<path d="M53.4966 14.7365H60.4796V18.6159H53.4966V21.1376H53.4991V21.6226C53.4992 22.4755 53.6672 23.3203 53.9936 24.1083C54.32 24.8963 54.7986 25.6124 55.4017 26.2155C56.0049 26.8186 56.7209 27.2973 57.509 27.6237C58.297 27.9501 59.1417 28.1181 59.9947 28.1181H60.4796V32H59.9947C58.6319 32 57.2824 31.7315 56.0234 31.21C54.7644 30.6885 53.6203 29.9242 52.6567 28.9606C51.6931 27.997 50.9288 26.8529 50.4073 25.5939C49.9477 24.4844 49.6848 23.3047 49.6288 22.1075H49.6173V11.2451H53.4966V14.7365Z" fill="#146CE0"/>
<path d="M74.2075 11.2451C76.0291 11.2451 77.8186 11.7248 79.3961 12.6355L79.8161 12.8779L77.8753 16.2399L77.4553 15.9973C76.4679 15.4272 75.3477 15.127 74.2075 15.127C73.0674 15.127 71.9472 15.4272 70.9598 15.9973C69.9723 16.5673 69.1523 17.3874 68.5822 18.3748C68.0121 19.3622 67.712 20.4824 67.712 21.6226C67.712 22.7627 68.0121 23.8829 68.5822 24.8703C69.1523 25.8578 69.9723 26.6778 70.9598 27.2479C71.9472 27.818 73.0674 28.1181 74.2075 28.1181C75.3477 28.1181 76.4679 27.818 77.4553 27.2479L77.8753 27.0053L79.8161 30.3672L79.3961 30.6096C77.8186 31.5204 76.0291 32 74.2075 32C72.3859 32 70.5965 31.5204 69.0189 30.6096C67.4414 29.6988 66.1313 28.3887 65.2205 26.8112C64.3097 25.2336 63.8301 23.4441 63.8301 21.6226C63.8301 19.801 64.3097 18.0115 65.2205 16.434C66.1313 14.8564 67.4414 13.5464 69.0189 12.6355C70.5965 11.7248 72.3859 11.2452 74.2075 11.2451Z" fill="#00B7FF"/>
<path fill-rule="evenodd" clip-rule="evenodd" d="M90.5011 11.2451C96.2323 11.2452 100.879 15.8913 100.879 21.6226C100.878 27.3538 96.2323 32 90.5011 32C84.7698 32 80.1237 27.3538 80.1237 21.6226C80.1237 15.8913 84.7698 11.2451 90.5011 11.2451ZM90.5011 15.127C86.9138 15.127 84.0056 18.0352 84.0056 21.6226C84.0056 25.2099 86.9138 28.1181 90.5011 28.1181C94.0884 28.1181 96.9966 25.2099 96.9966 21.6226C96.9966 18.0353 94.0884 15.1271 90.5011 15.127Z" fill="#00B7FF"/>
<path d="M11.7351 17.8401C13.9047 17.8401 15.7117 19.5079 15.7117 21.6226H15.7122V25.4043H11.7961C11.7758 25.4046 11.7555 25.405 11.7351 25.405C9.56559 25.4049 7.75881 23.7372 7.75877 21.6226C7.75877 19.5079 9.56557 17.8402 11.7351 17.8401Z" fill="#146CE0"/>
</svg>
